<svg width="36" height="36" viewBox="0 0 36 36" fill="none" xmlns="http://www.w3.org/2000/svg">
<g filter="url(#filter0_ii_225_4048)">
<circle cx="18" cy="17.9995" r="16" fill="url(#paint0_linear_225_4048)"/>
</g>
<g style="mix-blend-mode:multiply" opacity="0.6">
<path d="M16.1338 2.10782C16.3026 2.78411 16.6147 3.34242 17.0283 3.27481C17.2302 3.32025 17.4813 3.31552 17.7344 3.31094C18.3409 3.30003 18.9577 3.28934 18.9316 3.96524C19.5669 3.68761 19.6604 4.06617 19.751 4.43399C19.781 4.55594 19.8112 4.67654 19.8604 4.77188C21.8704 5.84492 21.3148 6.02697 20.6982 6.22891C20.262 6.37178 19.7955 6.52475 20.1846 7.01016C19.935 7.39568 19.5096 7.16087 19.0771 6.92227C18.5972 6.65747 18.1085 6.3885 17.8408 6.95645C17.7281 7.24511 18.1404 7.55463 18.6064 7.90469C19.1671 8.32583 19.8052 8.80557 19.6982 9.3754C19.2978 9.96919 19.6722 10.3312 20.0723 10.7182C20.4515 11.0851 20.8539 11.4748 20.6406 12.1049C20.3711 12.8213 21.4638 13.1727 21.6807 12.3432C21.8299 11.732 22.2936 11.955 22.7061 12.226C22.0224 11.6537 21.5782 9.35593 22.8955 10.3656C22.9751 10.8426 23.3423 11.0572 23.6943 11.2621C24.1015 11.4992 24.4893 11.7242 24.3877 12.3315C23.7387 13.4855 26.0519 14.7971 28.1553 15.9897C29.5168 16.7616 30.7902 17.4842 31.1152 18.0815C30.9772 19.0345 31.6035 18.7404 31.4141 17.9828C31.4309 17.8839 31.3779 17.7735 31.3271 17.6684C31.2474 17.5031 31.1738 17.3501 31.3887 17.2758C31.6395 17.1885 31.6997 17.3893 31.7627 17.6C31.7944 17.7061 31.8267 17.8151 31.8848 17.891C32.0469 16.1655 33.6872 19.0564 32.0127 19.3637C33.3197 20.37 33.0477 21.5895 32.7686 22.8373C32.6308 23.4531 32.4917 24.0757 32.54 24.683C32.2789 25.2503 31.9854 25.7994 31.6621 26.3285C31.6158 26.2264 31.6051 26.0706 31.6504 25.8481C31.6609 25.5731 31.7861 25.1134 31.9258 24.601C32.2753 23.3188 32.7156 21.704 31.6777 21.8119C31.5046 22.5331 31.5027 23.3138 31.501 24.1088C31.4988 25.1294 31.494 26.1729 31.1289 27.1449C30.5818 27.929 29.9664 28.6616 29.291 29.3344C29.0853 29.234 28.9506 28.8555 28.7959 28.4164C28.6538 28.0131 28.4941 27.5599 28.2451 27.2279C28.9852 27.343 29.5502 26.6843 29.9531 25.4027C29.4877 25.5539 29.1652 25.2817 28.916 25.0717C28.6136 24.8169 28.4191 24.6533 28.207 25.4467C27.1619 24.4771 25.6881 22.4131 26.0605 20.8568C26.5521 19.8536 26.0283 19.9613 25.3564 20.1C24.971 20.1796 24.5363 20.2697 24.2168 20.1654C22.5074 19.7039 22.6871 21.7574 22.8477 22.8617C22.6225 23.4102 22.8914 23.755 23.1592 24.0981C23.3037 24.2832 23.4478 24.4681 23.5137 24.684C23.776 24.7393 24.0229 24.7072 24.2598 24.6762C24.7548 24.6113 25.208 24.5522 25.6748 25.309C26.6868 25.6743 26.4719 26.3595 26.248 27.0736C26.0379 27.7439 25.8204 28.4396 26.6016 28.9193C27.2096 29.6882 26.6881 30.4919 25.876 30.7943C25.9621 29.1509 25.9092 29.1633 25.5518 29.2475C25.3098 29.3045 24.9282 29.3938 24.3555 29.0258C24.5866 29.9148 23.7898 30.0812 23.3516 29.5981C23.4336 29.3159 23.3663 29.0851 23.2998 28.8568C23.2467 28.6745 23.1946 28.4934 23.2188 28.2885C22.8496 28.7877 22.4414 28.3226 22.5264 27.81C22.4031 27.3392 22.8392 26.9374 23.2139 26.5922C23.6733 26.1689 24.0411 25.8299 23.1738 25.5502C22.8517 25.1714 22.5956 25.6503 22.334 26.1391C22.1393 26.5028 21.9411 26.8719 21.7109 26.8979C21.5019 26.6928 21.6104 26.4393 21.7266 26.1674C21.8449 25.8903 21.9712 25.5936 21.7783 25.31C21.7798 24.5602 21.1449 24.8143 20.6221 25.0238C20.1475 25.214 19.7655 25.3671 20.0352 24.6986C20.9064 23.9937 19.9803 23.3551 19.7363 24.5727C19.2224 24.1732 19.6308 23.4986 19.9883 22.9086C20.3969 22.2342 20.7387 21.6699 19.5596 21.7523C19.2566 22.075 19.1386 21.954 18.9814 21.7924C18.8913 21.6997 18.7877 21.5933 18.6299 21.5502C17.1019 21.7155 16.9226 20.4309 16.7324 19.0658C16.5658 17.8699 16.391 16.6119 15.293 16.2143C14.8862 15.7862 14.9598 16.0973 15.0449 16.4535C15.0914 16.6482 15.1409 16.8566 15.1172 16.9652C13.9358 16.6945 14.0105 17.1917 14.0645 17.5482C14.1155 17.8856 14.1477 18.0973 13.0771 17.4145C13.098 18.0656 13.0348 20.6122 12.2178 19.4818C11.7799 18.8279 11.0964 18.5977 10.4404 18.3773C9.74985 18.1454 9.0901 17.9239 8.78125 17.2289C8.03792 16.5352 8.33103 16.0685 8.68555 15.5053C8.80798 15.3108 8.93736 15.1045 9.03418 14.8734C8.92938 13.8614 9.34612 14.1476 9.81738 14.4711C10.0168 14.608 10.2264 14.7512 10.4102 14.8061C10.278 14.5731 10.1509 14.372 10.0449 14.2045C9.62325 13.5383 9.53707 13.4023 10.8057 13.8881C10.4654 13.4033 10.6486 12.9994 10.834 12.5912C10.932 12.3755 11.0305 12.1584 11.0527 11.9272C11.0663 11.7866 10.996 11.644 10.9268 11.5023C10.8001 11.2434 10.6761 10.9887 11.0674 10.7592C10.7768 10.396 9.88683 10.338 9.72949 10.974C9.62673 12.0948 8.38464 11.9761 8.25781 11.1166C9.10208 10.8981 9.66237 10.6302 9.4248 9.50137C10.1594 8.04914 5.63624 9.59189 5.74805 10.3051C5.79501 10.5606 6.03829 10.5801 6.26562 10.5981C6.50451 10.6169 6.72652 10.6345 6.68457 10.9232C6.46537 11.1335 6.17925 11.0808 5.89746 11.0287C5.49415 10.9541 5.09846 10.8811 4.91797 11.5824C4.51308 12.7105 5.45139 12.8029 6.25586 12.8822C6.76113 12.9321 7.21399 12.9771 7.24805 13.2699C7.27334 13.5232 7.4538 13.4711 7.65723 13.4125C7.81646 13.3666 7.98994 13.3163 8.11328 13.4057C7.79862 13.9266 6.13028 15.7122 5.85254 15.8305C5.97238 16.0933 6.55342 16.4613 7.15625 16.8432C8.24602 17.5335 9.40756 18.2689 8.0459 18.5102C7.56731 18.5295 7.62205 18.7266 7.67188 18.9047C7.73652 19.1358 7.79218 19.3353 6.66211 19.0756C6.65906 19.4732 7.00733 19.4914 7.29004 19.5063C7.603 19.5227 7.83539 19.5354 7.41992 20.0531C6.77294 20.9932 7.213 21.1078 7.67773 21.2279C8.1009 21.3373 8.5438 21.4517 8.2041 22.1996V22.1918C8.08341 22.9849 7.96913 22.8757 7.77148 22.6879C7.59585 22.5211 7.35489 22.2927 6.98633 22.5795C6.72143 22.8753 6.34427 23.5714 6.52246 23.767C7.56061 23.5768 7.55588 24.7429 6.50488 24.5297C5.83861 24.8805 5.40958 24.6583 5.13477 24.516C4.90266 24.3958 4.7798 24.3328 4.71582 24.7201C4.8044 25.2474 5.23327 25.3443 5.58105 25.4223C5.91387 25.4969 6.17235 25.5542 5.9873 25.9574L5.98047 25.9906C5.90306 26.367 5.84572 26.6484 6.43555 26.7299C7.06119 26.6949 7.03083 27.2598 7.00195 27.7963C6.97001 28.3897 6.94009 28.9488 7.80176 28.6234C9.21501 28.52 8.75559 29.3791 8.28223 30.265C8.22571 30.3708 8.16997 30.4775 8.11621 30.5824C4.39209 27.653 2.00012 23.1062 2 18.0004C2 12.4631 4.8131 7.58273 9.08789 4.71036C9.2482 4.74422 9.40287 4.81618 9.54492 4.94962L9.54688 4.95255C9.51465 4.73861 9.57378 4.52342 9.67969 4.33047C10.0285 4.11769 10.3862 3.918 10.752 3.73184C10.8398 3.8169 10.8791 3.98157 10.834 4.24942C10.9107 4.28312 10.9988 4.28418 11.0801 4.28458C11.2523 4.28546 11.3947 4.2858 11.3369 4.60294C11.3124 4.8905 11.0502 4.95053 10.8066 5.00626C10.5075 5.07471 10.2358 5.13692 10.4648 5.60684C10.4408 5.69615 10.412 5.79151 10.3818 5.89005C10.1922 6.50946 9.95874 7.27153 10.6621 7.6713C11.6186 5.15613 13.5864 5.8865 14.6738 6.29044C15.2929 6.52037 15.6265 6.64456 15.3262 6.00333C13.4029 5.33615 14.4143 3.39838 16.1465 4.21329C15.8717 3.80965 15.4569 3.73181 15.0527 3.65567C14.633 3.57663 14.2242 3.49953 13.9951 3.06192C14.0049 2.92433 14.1494 2.6843 14.3262 2.42325C14.9167 2.2845 15.52 2.17912 16.1338 2.10782ZM8.58594 21.4457C8.7061 21.0365 8.81524 20.6634 9.02637 21.2172C9.09905 21.4843 9.31314 21.4376 9.60254 21.3744C10.0746 21.2715 10.7479 21.1252 11.3369 22.2231C11.1976 22.3343 11.046 22.4315 10.8945 22.5287C10.5066 22.7777 10.1183 23.0267 9.93359 23.5111C9.675 24.0925 8.33058 23.5785 8.36523 23.1596C8.48192 22.91 8.39348 22.7148 8.31445 22.5395C8.23588 22.3651 8.16667 22.21 8.31543 22.0404C8.42889 21.9798 8.50965 21.7055 8.58594 21.4457ZM27.9131 8.36758C28.3883 8.26839 28.7628 8.64564 29.1582 9.04337C29.528 9.41526 29.9162 9.80558 30.4219 9.84219C30.7092 10.3582 31.1594 11.3294 31.1064 11.8617C31.0196 17.5269 25.7994 12.1707 27.3926 12.5277C27.3525 12.3823 27.2943 12.2421 27.2373 12.1039C27.1116 11.7991 26.9898 11.5038 27.0713 11.183C25.4374 10.8 27.3239 8.91805 27.9131 8.36758Z" fill="#94A3B8"/>
</g>
<g filter="url(#filter1_f_225_4048)">
<ellipse cx="18" cy="11.3329" rx="9.33333" ry="6.66667" fill="url(#paint1_linear_225_4048)" style="mix-blend-mode:soft-light"/>
</g>
<g filter="url(#filter2_di_225_4048)">
<ellipse cx="25.5" cy="11.0001" rx="1.5" ry="2" transform="rotate(-22.1932 25.5 11.0001)" fill="#94A3B8"/>
</g>
<g filter="url(#filter3_di_225_4048)">
<ellipse cx="21.7555" cy="17.9185" rx="1.87701" ry="1.30625" transform="rotate(-22.1932 21.7555 17.9185)" fill="#64748B"/>
</g>
<g filter="url(#filter4_di_225_4048)">
<ellipse cx="12.0198" cy="8.87634" rx="1.49447" ry="1.5255" transform="rotate(15.8877 12.0198 8.87634)" fill="#94A3B8"/>
</g>
<g filter="url(#filter5_di_225_4048)">
<ellipse cx="14.0298" cy="30.0545" rx="1.56468" ry="1.60711" transform="rotate(-20.5835 14.0298 30.0545)" fill="#475569"/>
</g>
<g filter="url(#filter6_di_225_4048)">
<ellipse cx="21.9518" cy="25.0825" rx="2.40196" ry="2" transform="rotate(-20.5835 21.9518 25.0825)" fill="#475569"/>
</g>
<g filter="url(#filter7_di_225_4048)">
<ellipse cx="11.5366" cy="20.5951" rx="1.23333" ry="1.02693" transform="rotate(56.5561 11.5366 20.5951)" fill="#64748B"/>
</g>
<g filter="url(#filter8_di_225_4048)">
<ellipse cx="6.51563" cy="23.3951" rx="0.5923" ry="0.49318" transform="rotate(-20.5835 6.51563 23.3951)" fill="#94A3B8"/>
</g>
<g filter="url(#filter9_di_225_4048)">
<ellipse cx="31.7279" cy="15.6699" rx="0.5923" ry="0.49318" transform="rotate(48.1814 31.7279 15.6699)" fill="#94A3B8"/>
</g>
<g filter="url(#filter10_di_225_4048)">
<ellipse cx="28.7625" cy="26.7703" rx="0.5923" ry="0.49318" transform="rotate(48.1814 28.7625 26.7703)" fill="#64748B"/>
</g>
<g filter="url(#filter11_di_225_4048)">
<ellipse cx="19.7279" cy="6.66984" rx="0.5923" ry="0.49318" transform="rotate(20.8278 19.7279 6.66984)" fill="#94A3B8"/>
</g>
<g filter="url(#filter12_di_225_4048)">
<ellipse cx="15.7289" cy="14.6716" rx="0.5923" ry="0.49318" transform="rotate(20.8278 15.7289 14.6716)" fill="#94A3B8"/>
</g>
<g filter="url(#filter13_di_225_4048)">
<ellipse cx="27.729" cy="19.6716" rx="0.5923" ry="0.49318" transform="rotate(94.6584 27.729 19.6716)" fill="#94A3B8"/>
</g>
<g filter="url(#filter14_di_225_4048)">
<ellipse cx="17.5397" cy="22.6304" rx="0.5923" ry="0.49318" transform="rotate(94.6584 17.5397 22.6304)" fill="#94A3B8"/>
</g>
<g filter="url(#filter15_di_225_4048)">
<ellipse cx="20.5397" cy="31.6304" rx="0.5923" ry="0.49318" transform="rotate(94.6584 20.5397 31.6304)" fill="#94A3B8"/>
</g>
<defs>
<filter id="filter0_ii_225_4048" x="2" y="0.999512" width="32" height="34" filterUnits="userSpaceOnUse" color-interpolation-filters="sRGB">
<feFlood flood-opacity="0" result="BackgroundImageFix"/>
<feBlend mode="normal" in="SourceGraphic" in2="BackgroundImageFix" result="shape"/>
<feColorMatrix in="SourceAlpha" type="matrix" values="0 0 0 0 0 0 0 0 0 0 0 0 0 0 0 0 0 0 127 0" result="hardAlpha"/>
<feMorphology radius="1" operator="erode" in="SourceAlpha" result="effect1_innerShadow_225_4048"/>
<feOffset dy="-1"/>
<feGaussianBlur stdDeviation="3"/>
<feComposite in2="hardAlpha" operator="arithmetic" k2="-1" k3="1"/>
<feColorMatrix type="matrix" values="0 0 0 0 0.278431 0 0 0 0 0.333333 0 0 0 0 0.411765 0 0 0 1 0"/>
<feBlend mode="normal" in2="shape" result="effect1_innerShadow_225_4048"/>
<feColorMatrix in="SourceAlpha" type="matrix" values="0 0 0 0 0 0 0 0 0 0 0 0 0 0 0 0 0 0 127 0" result="hardAlpha"/>
<feOffset dy="1"/>
<feGaussianBlur stdDeviation="1"/>
<feComposite in2="hardAlpha" operator="arithmetic" k2="-1" k3="1"/>
<feColorMatrix type="matrix" values="0 0 0 0 0.796078 0 0 0 0 0.835294 0 0 0 0 0.882353 0 0 0 1 0"/>
<feBlend mode="normal" in2="effect1_innerShadow_225_4048" result="effect2_innerShadow_225_4048"/>
</filter>
<filter id="filter1_f_225_4048" x="5.99999" y="1.99959" width="24" height="18.6667" filterUnits="userSpaceOnUse" color-interpolation-filters="sRGB">
<feFlood flood-opacity="0" result="BackgroundImageFix"/>
<feBlend mode="normal" in="SourceGraphic" in2="BackgroundImageFix" result="shape"/>
<feGaussianBlur stdDeviation="1.33333" result="effect1_foregroundBlur_225_4048"/>
</filter>
<filter id="filter2_di_225_4048" x="23.4186" y="9.06299" width="4.16268" height="4.87418" filterUnits="userSpaceOnUse" color-interpolation-filters="sRGB">
<feFlood flood-opacity="0" result="BackgroundImageFix"/>
<feColorMatrix in="SourceAlpha" type="matrix" values="0 0 0 0 0 0 0 0 0 0 0 0 0 0 0 0 0 0 127 0" result="hardAlpha"/>
<feOffset dy="0.5"/>
<feGaussianBlur stdDeviation="0.25"/>
<feComposite in2="hardAlpha" operator="out"/>
<feColorMatrix type="matrix" values="0 0 0 0 0.886275 0 0 0 0 0.909804 0 0 0 0 0.941176 0 0 0 0.7 0"/>
<feBlend mode="normal" in2="BackgroundImageFix" result="effect1_dropShadow_225_4048"/>
<feBlend mode="normal" in="SourceGraphic" in2="effect1_dropShadow_225_4048" result="shape"/>
<feColorMatrix in="SourceAlpha" type="matrix" values="0 0 0 0 0 0 0 0 0 0 0 0 0 0 0 0 0 0 127 0" result="hardAlpha"/>
<feOffset dy="0.5"/>
<feGaussianBlur stdDeviation="0.5"/>
<feComposite in2="hardAlpha" operator="arithmetic" k2="-1" k3="1"/>
<feColorMatrix type="matrix" values="0 0 0 0 0.392157 0 0 0 0 0.454902 0 0 0 0 0.545098 0 0 0 1 0"/>
<feBlend mode="normal" in2="shape" result="effect2_innerShadow_225_4048"/>
</filter>
<filter id="filter3_di_225_4048" x="19.4484" y="16.5163" width="4.61419" height="3.80441" filterUnits="userSpaceOnUse" color-interpolation-filters="sRGB">
<feFlood flood-opacity="0" result="BackgroundImageFix"/>
<feColorMatrix in="SourceAlpha" type="matrix" values="0 0 0 0 0 0 0 0 0 0 0 0 0 0 0 0 0 0 127 0" result="hardAlpha"/>
<feOffset dy="0.5"/>
<feGaussianBlur stdDeviation="0.25"/>
<feComposite in2="hardAlpha" operator="out"/>
<feColorMatrix type="matrix" values="0 0 0 0 0.886275 0 0 0 0 0.909804 0 0 0 0 0.941176 0 0 0 0.7 0"/>
<feBlend mode="normal" in2="BackgroundImageFix" result="effect1_dropShadow_225_4048"/>
<feBlend mode="normal" in="SourceGraphic" in2="effect1_dropShadow_225_4048" result="shape"/>
<feColorMatrix in="SourceAlpha" type="matrix" values="0 0 0 0 0 0 0 0 0 0 0 0 0 0 0 0 0 0 127 0" result="hardAlpha"/>
<feOffset dy="0.5"/>
<feGaussianBlur stdDeviation="0.5"/>
<feComposite in2="hardAlpha" operator="arithmetic" k2="-1" k3="1"/>
<feColorMatrix type="matrix" values="0 0 0 0 0.392157 0 0 0 0 0.454902 0 0 0 0 0.545098 0 0 0 1 0"/>
<feBlend mode="normal" in2="shape" result="effect2_innerShadow_225_4048"/>
</filter>
<filter id="filter4_di_225_4048" x="10.0226" y="7.35275" width="3.99441" height="4.04718" filterUnits="userSpaceOnUse" color-interpolation-filters="sRGB">
<feFlood flood-opacity="0" result="BackgroundImageFix"/>
<feColorMatrix in="SourceAlpha" type="matrix" values="0 0 0 0 0 0 0 0 0 0 0 0 0 0 0 0 0 0 127 0" result="hardAlpha"/>
<feOffset dy="0.5"/>
<feGaussianBlur stdDeviation="0.25"/>
<feComposite in2="hardAlpha" operator="out"/>
<feColorMatrix type="matrix" values="0 0 0 0 0.886275 0 0 0 0 0.909804 0 0 0 0 0.941176 0 0 0 0.7 0"/>
<feBlend mode="normal" in2="BackgroundImageFix" result="effect1_dropShadow_225_4048"/>
<feBlend mode="normal" in="SourceGraphic" in2="effect1_dropShadow_225_4048" result="shape"/>
<feColorMatrix in="SourceAlpha" type="matrix" values="0 0 0 0 0 0 0 0 0 0 0 0 0 0 0 0 0 0 127 0" result="hardAlpha"/>
<feOffset dy="0.5"/>
<feGaussianBlur stdDeviation="0.5"/>
<feComposite in2="hardAlpha" operator="arithmetic" k2="-1" k3="1"/>
<feColorMatrix type="matrix" values="0 0 0 0 0.392157 0 0 0 0 0.454902 0 0 0 0 0.545098 0 0 0 1 0"/>
<feBlend mode="normal" in2="shape" result="effect2_innerShadow_225_4048"/>
</filter>
<filter id="filter5_di_225_4048" x="11.9594" y="28.4521" width="4.14082" height="4.20471" filterUnits="userSpaceOnUse" color-interpolation-filters="sRGB">
<feFlood flood-opacity="0" result="BackgroundImageFix"/>
<feColorMatrix in="SourceAlpha" type="matrix" values="0 0 0 0 0 0 0 0 0 0 0 0 0 0 0 0 0 0 127 0" result="hardAlpha"/>
<feOffset dy="0.5"/>
<feGaussianBlur stdDeviation="0.25"/>
<feComposite in2="hardAlpha" operator="out"/>
<feColorMatrix type="matrix" values="0 0 0 0 0.886275 0 0 0 0 0.909804 0 0 0 0 0.941176 0 0 0 0.15 0"/>
<feBlend mode="normal" in2="BackgroundImageFix" result="effect1_dropShadow_225_4048"/>
<feBlend mode="normal" in="SourceGraphic" in2="effect1_dropShadow_225_4048" result="shape"/>
<feColorMatrix in="SourceAlpha" type="matrix" values="0 0 0 0 0 0 0 0 0 0 0 0 0 0 0 0 0 0 127 0" result="hardAlpha"/>
<feOffset dy="0.5"/>
<feGaussianBlur stdDeviation="0.5"/>
<feComposite in2="hardAlpha" operator="arithmetic" k2="-1" k3="1"/>
<feColorMatrix type="matrix" values="0 0 0 0 0.392157 0 0 0 0 0.454902 0 0 0 0 0.545098 0 0 0 1 0"/>
<feBlend mode="normal" in2="shape" result="effect2_innerShadow_225_4048"/>
</filter>
<filter id="filter6_di_225_4048" x="19.0951" y="23.0281" width="5.71325" height="5.10895" filterUnits="userSpaceOnUse" color-interpolation-filters="sRGB">
<feFlood flood-opacity="0" result="BackgroundImageFix"/>
<feColorMatrix in="SourceAlpha" type="matrix" values="0 0 0 0 0 0 0 0 0 0 0 0 0 0 0 0 0 0 127 0" result="hardAlpha"/>
<feOffset dy="0.5"/>
<feGaussianBlur stdDeviation="0.25"/>
<feComposite in2="hardAlpha" operator="out"/>
<feColorMatrix type="matrix" values="0 0 0 0 0.886275 0 0 0 0 0.909804 0 0 0 0 0.941176 0 0 0 0.3 0"/>
<feBlend mode="normal" in2="BackgroundImageFix" result="effect1_dropShadow_225_4048"/>
<feBlend mode="normal" in="SourceGraphic" in2="effect1_dropShadow_225_4048" result="shape"/>
<feColorMatrix in="SourceAlpha" type="matrix" values="0 0 0 0 0 0 0 0 0 0 0 0 0 0 0 0 0 0 127 0" result="hardAlpha"/>
<feOffset dy="0.5"/>
<feGaussianBlur stdDeviation="0.5"/>
<feComposite in2="hardAlpha" operator="arithmetic" k2="-1" k3="1"/>
<feColorMatrix type="matrix" values="0 0 0 0 0.392157 0 0 0 0 0.454902 0 0 0 0 0.545098 0 0 0 1 0"/>
<feBlend mode="normal" in2="shape" result="effect2_innerShadow_225_4048"/>
</filter>
<filter id="filter7_di_225_4048" x="9.94283" y="19.4204" width="3.18758" height="3.34937" filterUnits="userSpaceOnUse" color-interpolation-filters="sRGB">
<feFlood flood-opacity="0" result="BackgroundImageFix"/>
<feColorMatrix in="SourceAlpha" type="matrix" values="0 0 0 0 0 0 0 0 0 0 0 0 0 0 0 0 0 0 127 0" result="hardAlpha"/>
<feOffset dy="0.5"/>
<feGaussianBlur stdDeviation="0.25"/>
<feComposite in2="hardAlpha" operator="out"/>
<feColorMatrix type="matrix" values="0 0 0 0 0.886275 0 0 0 0 0.909804 0 0 0 0 0.941176 0 0 0 0.7 0"/>
<feBlend mode="normal" in2="BackgroundImageFix" result="effect1_dropShadow_225_4048"/>
<feBlend mode="normal" in="SourceGraphic" in2="effect1_dropShadow_225_4048" result="shape"/>
<feColorMatrix in="SourceAlpha" type="matrix" values="0 0 0 0 0 0 0 0 0 0 0 0 0 0 0 0 0 0 127 0" result="hardAlpha"/>
<feOffset dy="0.5"/>
<feGaussianBlur stdDeviation="0.5"/>
<feComposite in2="hardAlpha" operator="arithmetic" k2="-1" k3="1"/>
<feColorMatrix type="matrix" values="0 0 0 0 0.392157 0 0 0 0 0.454902 0 0 0 0 0.545098 0 0 0 1 0"/>
<feBlend mode="normal" in2="shape" result="effect2_innerShadow_225_4048"/>
</filter>
<filter id="filter8_di_225_4048" x="5.43451" y="22.8884" width="2.16224" height="2.01324" filterUnits="userSpaceOnUse" color-interpolation-filters="sRGB">
<feFlood flood-opacity="0" result="BackgroundImageFix"/>
<feColorMatrix in="SourceAlpha" type="matrix" values="0 0 0 0 0 0 0 0 0 0 0 0 0 0 0 0 0 0 127 0" result="hardAlpha"/>
<feOffset dy="0.5"/>
<feGaussianBlur stdDeviation="0.25"/>
<feComposite in2="hardAlpha" operator="out"/>
<feColorMatrix type="matrix" values="0 0 0 0 0.886275 0 0 0 0 0.909804 0 0 0 0 0.941176 0 0 0 0.2 0"/>
<feBlend mode="normal" in2="BackgroundImageFix" result="effect1_dropShadow_225_4048"/>
<feBlend mode="normal" in="SourceGraphic" in2="effect1_dropShadow_225_4048" result="shape"/>
<feColorMatrix in="SourceAlpha" type="matrix" values="0 0 0 0 0 0 0 0 0 0 0 0 0 0 0 0 0 0 127 0" result="hardAlpha"/>
<feOffset dy="0.5"/>
<feGaussianBlur stdDeviation="0.5"/>
<feComposite in2="hardAlpha" operator="arithmetic" k2="-1" k3="1"/>
<feColorMatrix type="matrix" values="0 0 0 0 0.392157 0 0 0 0 0.454902 0 0 0 0 0.545098 0 0 0 1 0"/>
<feBlend mode="normal" in2="shape" result="effect2_innerShadow_225_4048"/>
</filter>
<filter id="filter9_di_225_4048" x="30.6884" y="15.1194" width="2.07901" height="2.10095" filterUnits="userSpaceOnUse" color-interpolation-filters="sRGB">
<feFlood flood-opacity="0" result="BackgroundImageFix"/>
<feColorMatrix in="SourceAlpha" type="matrix" values="0 0 0 0 0 0 0 0 0 0 0 0 0 0 0 0 0 0 127 0" result="hardAlpha"/>
<feOffset dy="0.5"/>
<feGaussianBlur stdDeviation="0.25"/>
<feComposite in2="hardAlpha" operator="out"/>
<feColorMatrix type="matrix" values="0 0 0 0 0.886275 0 0 0 0 0.909804 0 0 0 0 0.941176 0 0 0 0.2 0"/>
<feBlend mode="normal" in2="BackgroundImageFix" result="effect1_dropShadow_225_4048"/>
<feBlend mode="normal" in="SourceGraphic" in2="effect1_dropShadow_225_4048" result="shape"/>
<feColorMatrix in="SourceAlpha" type="matrix" values="0 0 0 0 0 0 0 0 0 0 0 0 0 0 0 0 0 0 127 0" result="hardAlpha"/>
<feOffset dy="0.5"/>
<feGaussianBlur stdDeviation="0.5"/>
<feComposite in2="hardAlpha" operator="arithmetic" k2="-1" k3="1"/>
<feColorMatrix type="matrix" values="0 0 0 0 0.392157 0 0 0 0 0.454902 0 0 0 0 0.545098 0 0 0 1 0"/>
<feBlend mode="normal" in2="shape" result="effect2_innerShadow_225_4048"/>
</filter>
<filter id="filter10_di_225_4048" x="27.723" y="26.2198" width="2.07901" height="2.10095" filterUnits="userSpaceOnUse" color-interpolation-filters="sRGB">
<feFlood flood-opacity="0" result="BackgroundImageFix"/>
<feColorMatrix in="SourceAlpha" type="matrix" values="0 0 0 0 0 0 0 0 0 0 0 0 0 0 0 0 0 0 127 0" result="hardAlpha"/>
<feOffset dy="0.5"/>
<feGaussianBlur stdDeviation="0.25"/>
<feComposite in2="hardAlpha" operator="out"/>
<feColorMatrix type="matrix" values="0 0 0 0 0.886275 0 0 0 0 0.909804 0 0 0 0 0.941176 0 0 0 0.2 0"/>
<feBlend mode="normal" in2="BackgroundImageFix" result="effect1_dropShadow_225_4048"/>
<feBlend mode="normal" in="SourceGraphic" in2="effect1_dropShadow_225_4048" result="shape"/>
<feColorMatrix in="SourceAlpha" type="matrix" values="0 0 0 0 0 0 0 0 0 0 0 0 0 0 0 0 0 0 127 0" result="hardAlpha"/>
<feOffset dy="0.5"/>
<feGaussianBlur stdDeviation="0.5"/>
<feComposite in2="hardAlpha" operator="arithmetic" k2="-1" k3="1"/>
<feColorMatrix type="matrix" values="0 0 0 0 0.392157 0 0 0 0 0.454902 0 0 0 0 0.545098 0 0 0 1 0"/>
<feBlend mode="normal" in2="shape" result="effect2_innerShadow_225_4048"/>
</filter>
<filter id="filter11_di_225_4048" x="18.647" y="6.16293" width="2.16172" height="2.01382" filterUnits="userSpaceOnUse" color-interpolation-filters="sRGB">
<feFlood flood-opacity="0" result="BackgroundImageFix"/>
<feColorMatrix in="SourceAlpha" type="matrix" values="0 0 0 0 0 0 0 0 0 0 0 0 0 0 0 0 0 0 127 0" result="hardAlpha"/>
<feOffset dy="0.5"/>
<feGaussianBlur stdDeviation="0.25"/>
<feComposite in2="hardAlpha" operator="out"/>
<feColorMatrix type="matrix" values="0 0 0 0 0.886275 0 0 0 0 0.909804 0 0 0 0 0.941176 0 0 0 0.7 0"/>
<feBlend mode="normal" in2="BackgroundImageFix" result="effect1_dropShadow_225_4048"/>
<feBlend mode="normal" in="SourceGraphic" in2="effect1_dropShadow_225_4048" result="shape"/>
<feColorMatrix in="SourceAlpha" type="matrix" values="0 0 0 0 0 0 0 0 0 0 0 0 0 0 0 0 0 0 127 0" result="hardAlpha"/>
<feOffset dy="0.5"/>
<feGaussianBlur stdDeviation="0.5"/>
<feComposite in2="hardAlpha" operator="arithmetic" k2="-1" k3="1"/>
<feColorMatrix type="matrix" values="0 0 0 0 0.392157 0 0 0 0 0.454902 0 0 0 0 0.545098 0 0 0 1 0"/>
<feBlend mode="normal" in2="shape" result="effect2_innerShadow_225_4048"/>
</filter>
<filter id="filter12_di_225_4048" x="14.6481" y="14.1646" width="2.16172" height="2.01382" filterUnits="userSpaceOnUse" color-interpolation-filters="sRGB">
<feFlood flood-opacity="0" result="BackgroundImageFix"/>
<feColorMatrix in="SourceAlpha" type="matrix" values="0 0 0 0 0 0 0 0 0 0 0 0 0 0 0 0 0 0 127 0" result="hardAlpha"/>
<feOffset dy="0.5"/>
<feGaussianBlur stdDeviation="0.25"/>
<feComposite in2="hardAlpha" operator="out"/>
<feColorMatrix type="matrix" values="0 0 0 0 0.886275 0 0 0 0 0.909804 0 0 0 0 0.941176 0 0 0 0.7 0"/>
<feBlend mode="normal" in2="BackgroundImageFix" result="effect1_dropShadow_225_4048"/>
<feBlend mode="normal" in="SourceGraphic" in2="effect1_dropShadow_225_4048" result="shape"/>
<feColorMatrix in="SourceAlpha" type="matrix" values="0 0 0 0 0 0 0 0 0 0 0 0 0 0 0 0 0 0 127 0" result="hardAlpha"/>
<feOffset dy="0.5"/>
<feGaussianBlur stdDeviation="0.5"/>
<feComposite in2="hardAlpha" operator="arithmetic" k2="-1" k3="1"/>
<feColorMatrix type="matrix" values="0 0 0 0 0.392157 0 0 0 0 0.454902 0 0 0 0 0.545098 0 0 0 1 0"/>
<feBlend mode="normal" in2="shape" result="effect2_innerShadow_225_4048"/>
</filter>
<filter id="filter13_di_225_4048" x="26.735" y="19.0799" width="1.98787" height="2.18347" filterUnits="userSpaceOnUse" color-interpolation-filters="sRGB">
<feFlood flood-opacity="0" result="BackgroundImageFix"/>
<feColorMatrix in="SourceAlpha" type="matrix" values="0 0 0 0 0 0 0 0 0 0 0 0 0 0 0 0 0 0 127 0" result="hardAlpha"/>
<feOffset dy="0.5"/>
<feGaussianBlur stdDeviation="0.25"/>
<feComposite in2="hardAlpha" operator="out"/>
<feColorMatrix type="matrix" values="0 0 0 0 0.886275 0 0 0 0 0.909804 0 0 0 0 0.941176 0 0 0 0.4 0"/>
<feBlend mode="normal" in2="BackgroundImageFix" result="effect1_dropShadow_225_4048"/>
<feBlend mode="normal" in="SourceGraphic" in2="effect1_dropShadow_225_4048" result="shape"/>
<feColorMatrix in="SourceAlpha" type="matrix" values="0 0 0 0 0 0 0 0 0 0 0 0 0 0 0 0 0 0 127 0" result="hardAlpha"/>
<feOffset dy="0.5"/>
<feGaussianBlur stdDeviation="0.5"/>
<feComposite in2="hardAlpha" operator="arithmetic" k2="-1" k3="1"/>
<feColorMatrix type="matrix" values="0 0 0 0 0.392157 0 0 0 0 0.454902 0 0 0 0 0.545098 0 0 0 1 0"/>
<feBlend mode="normal" in2="shape" result="effect2_innerShadow_225_4048"/>
</filter>
<filter id="filter14_di_225_4048" x="16.5457" y="22.0386" width="1.98787" height="2.18347" filterUnits="userSpaceOnUse" color-interpolation-filters="sRGB">
<feFlood flood-opacity="0" result="BackgroundImageFix"/>
<feColorMatrix in="SourceAlpha" type="matrix" values="0 0 0 0 0 0 0 0 0 0 0 0 0 0 0 0 0 0 127 0" result="hardAlpha"/>
<feOffset dy="0.5"/>
<feGaussianBlur stdDeviation="0.25"/>
<feComposite in2="hardAlpha" operator="out"/>
<feColorMatrix type="matrix" values="0 0 0 0 0.886275 0 0 0 0 0.909804 0 0 0 0 0.941176 0 0 0 0.4 0"/>
<feBlend mode="normal" in2="BackgroundImageFix" result="effect1_dropShadow_225_4048"/>
<feBlend mode="normal" in="SourceGraphic" in2="effect1_dropShadow_225_4048" result="shape"/>
<feColorMatrix in="SourceAlpha" type="matrix" values="0 0 0 0 0 0 0 0 0 0 0 0 0 0 0 0 0 0 127 0" result="hardAlpha"/>
<feOffset dy="0.5"/>
<feGaussianBlur stdDeviation="0.5"/>
<feComposite in2="hardAlpha" operator="arithmetic" k2="-1" k3="1"/>
<feColorMatrix type="matrix" values="0 0 0 0 0.392157 0 0 0 0 0.454902 0 0 0 0 0.545098 0 0 0 1 0"/>
<feBlend mode="normal" in2="shape" result="effect2_innerShadow_225_4048"/>
</filter>
<filter id="filter15_di_225_4048" x="19.5457" y="31.0386" width="1.98787" height="2.18347" filterUnits="userSpaceOnUse" color-interpolation-filters="sRGB">
<feFlood flood-opacity="0" result="BackgroundImageFix"/>
<feColorMatrix in="SourceAlpha" type="matrix" values="0 0 0 0 0 0 0 0 0 0 0 0 0 0 0 0 0 0 127 0" result="hardAlpha"/>
<feOffset dy="0.5"/>
<feGaussianBlur stdDeviation="0.25"/>
<feComposite in2="hardAlpha" operator="out"/>
<feColorMatrix type="matrix" values="0 0 0 0 0.886275 0 0 0 0 0.909804 0 0 0 0 0.941176 0 0 0 0.2 0"/>
<feBlend mode="normal" in2="BackgroundImageFix" result="effect1_dropShadow_225_4048"/>
<feBlend mode="normal" in="SourceGraphic" in2="effect1_dropShadow_225_4048" result="shape"/>
<feColorMatrix in="SourceAlpha" type="matrix" values="0 0 0 0 0 0 0 0 0 0 0 0 0 0 0 0 0 0 127 0" result="hardAlpha"/>
<feOffset dy="0.5"/>
<feGaussianBlur stdDeviation="0.5"/>
<feComposite in2="hardAlpha" operator="arithmetic" k2="-1" k3="1"/>
<feColorMatrix type="matrix" values="0 0 0 0 0.392157 0 0 0 0 0.454902 0 0 0 0 0.545098 0 0 0 1 0"/>
<feBlend mode="normal" in2="shape" result="effect2_innerShadow_225_4048"/>
</filter>
<linearGradient id="paint0_linear_225_4048" x1="18" y1="1.99951" x2="18" y2="33.9995" gradientUnits="userSpaceOnUse">
<stop stop-color="#E2E8F0"/>
<stop offset="1" stop-color="#64748B"/>
</linearGradient>
<linearGradient id="paint1_linear_225_4048" x1="18" y1="4.66626" x2="18" y2="17.9996" gradientUnits="userSpaceOnUse">
<stop stop-color="#F1F5F9"/>
<stop offset="1" stop-color="#E2E8F0" stop-opacity="0"/>
</linearGradient>
</defs>
</svg>
